# xmcd
#
# Track frame offsets: 
#        150
#        18536
#        40123
#        60650
#        78336
#        96468
#        118695
#        140286
#        156386
#        176596
#
# Disc length: 2575 seconds
#
# Revision: 0
# Processed by: cddbd v1.4PL0 Copyright (c) Steve Scherf et al.
# Submitted via: ExactAudioCopy v0.95a4
#
DISCID=820a0d0a
DTITLE=Various Artist - Classic Rhythm and Blues
DYEAR=1999
DGENRE=R&B
TTITLE0=The Boy Is Mine
TTITLE1=I Can Do That
TTITLE2=My Little Secret
TTITLE3=Touch It
TTITLE4=Daydreamin'
TTITLE5=Delicious
TTITLE6=Go Deep
TTITLE7=My Way
TTITLE8=I Can Love You
TTITLE9=In My Bed
EXTD=
EXTT0=
EXTT1=
EXTT2=
EXTT3=
EXTT4=
EXTT5=
EXTT6=
EXTT7=
EXTT8=
EXTT9=
PLAYORDER=
